<svg xmlns="http://www.w3.org/2000/svg" viewBox="0 0 64 64" fill="none">
  <rect width="64" height="64" rx="14" fill="#17315a"/>
  <path d="M15.2 53.6V28a16.8 16.8 0 0 1 33.6 0v25.6" fill="#f5f9ff"/>
  <path d="M15.2 53.6c2.1 0 3.7-1.6 5.2-3.2 1.3 1.6 2.9 3.2 5.1 3.2 2.2 0 3.9-1.6 5.2-3.2 1.3 1.6 2.9 3.2 5.2 3.2 2.2 0 3.9-1.6 5.2-3.2 1.3 1.6 2.9 3.2 5 3.2" stroke="#0b1324" stroke-width="2.2" stroke-linecap="round" stroke-linejoin="round"/>
  <path d="M21.8 22.2h6.8M25.2 18.8v6.8" stroke="#0b1324" stroke-width="2.4" stroke-linecap="round"/>
  <path d="m36 23.8 7.6-4.1-7.6-4.2M36 23.8l7.6 4.2" stroke="#0b1324" stroke-width="2.4" stroke-linecap="round" stroke-linejoin="round"/>
  <path d="M21.2 35.2h21.6" stroke="#0b1324" stroke-width="2.4" stroke-linecap="round"/>
  <path d="M47.8 14.9c2.3 1.3 4 3.7 4.2 6.7M43.8 11.8c1.1 0 2.2.2 3.3.5" stroke="#f5f9ff" stroke-width="1.8" stroke-linecap="round" opacity=".65"/>
</svg>
